<svg width="18" height="18" viewBox="0 0 18 18" fill="none" xmlns="http://www.w3.org/2000/svg">
<path d="M3 13.5C2.7875 13.5 2.6095 13.428 2.466 13.284C2.3225 13.14 2.2505 12.962 2.25 12.75C2.2495 12.538 2.3215 12.36 2.466 12.216C2.6105 12.072 2.7885 12 3 12H6C6.2125 12 6.39075 12.072 6.53475 12.216C6.67875 12.36 6.7505 12.538 6.75 12.75C6.7495 12.962 6.6775 13.1402 6.534 13.2847C6.3905 13.4292 6.2125 13.501 6 13.5H3ZM3 9.75C2.7875 9.75 2.6095 9.678 2.466 9.534C2.3225 9.39 2.2505 9.212 2.25 9C2.2495 8.788 2.3215 8.61 2.466 8.466C2.6105 8.322 2.7885 8.25 3 8.25H10.5C10.7125 8.25 10.8908 8.322 11.0348 8.466C11.1788 8.61 11.2505 8.788 11.25 9C11.2495 9.212 11.1775 9.39025 11.034 9.53475C10.8905 9.67925 10.7125 9.751 10.5 9.75H3ZM3 6C2.7875 6 2.6095 5.928 2.466 5.784C2.3225 5.64 2.2505 5.462 2.25 5.25C2.2495 5.038 2.3215 4.86 2.466 4.716C2.6105 4.572 2.7885 4.5 3 4.5H15C15.2125 4.5 15.3908 4.572 15.5348 4.716C15.6788 4.86 15.7505 5.038 15.75 5.25C15.7495 5.462 15.6775 5.64025 15.534 5.78475C15.3905 5.92925 15.2125 6.001 15 6H3Z" fill="black"/>
</svg>
