<svg width="17" height="17" viewBox="0 0 17 17" fill="none" xmlns="http://www.w3.org/2000/svg">
<path d="M4.1875 5.89584L7.29167 0.833341C7.375 0.694452 7.47917 0.593618 7.60417 0.530841C7.72917 0.468063 7.86111 0.436952 8 0.437507C8.13889 0.438063 8.27083 0.469452 8.39583 0.531674C8.52083 0.593896 8.625 0.694452 8.70833 0.833341L11.8125 5.89584C11.8958 6.03473 11.9375 6.18056 11.9375 6.33334C11.9375 6.48612 11.9028 6.62501 11.8333 6.75001C11.7639 6.87501 11.6667 6.97584 11.5417 7.05251C11.4167 7.12917 11.2708 7.16723 11.1042 7.16667H4.89583C4.72917 7.16667 4.58333 7.12862 4.45833 7.05251C4.33333 6.9764 4.23611 6.87556 4.16667 6.75001C4.09722 6.62445 4.0625 6.48556 4.0625 6.33334C4.0625 6.18112 4.10417 6.03529 4.1875 5.89584ZM12.5833 16.3333C11.5417 16.3333 10.6564 15.9689 9.9275 15.24C9.19861 14.5111 8.83389 13.6256 8.83333 12.5833C8.83278 11.5411 9.1975 10.6558 9.9275 9.92751C10.6575 9.19917 11.5428 8.83445 12.5833 8.83334C13.6239 8.83223 14.5094 9.19695 15.24 9.92751C15.9706 10.6581 16.335 11.5433 16.3333 12.5833C16.3317 13.6233 15.9672 14.5089 15.24 15.24C14.5128 15.9711 13.6272 16.3356 12.5833 16.3333ZM0.5 15.0833V10.0833C0.5 9.84723 0.58 9.64945 0.74 9.49001C0.9 9.33056 1.09778 9.25056 1.33333 9.25001H6.33333C6.56944 9.25001 6.7675 9.33001 6.9275 9.49001C7.0875 9.65001 7.16722 9.84778 7.16667 10.0833V15.0833C7.16667 15.3195 7.08667 15.5175 6.92667 15.6775C6.76667 15.8375 6.56889 15.9172 6.33333 15.9167H1.33333C1.09722 15.9167 0.899445 15.8367 0.74 15.6767C0.580556 15.5167 0.500556 15.3189 0.5 15.0833ZM12.5833 14.6667C13.1667 14.6667 13.6597 14.4653 14.0625 14.0625C14.4653 13.6597 14.6667 13.1667 14.6667 12.5833C14.6667 12 14.4653 11.507 14.0625 11.1042C13.6597 10.7014 13.1667 10.5 12.5833 10.5C12 10.5 11.5069 10.7014 11.1042 11.1042C10.7014 11.507 10.5 12 10.5 12.5833C10.5 13.1667 10.7014 13.6597 11.1042 14.0625C11.5069 14.4653 12 14.6667 12.5833 14.6667ZM2.16667 14.25H5.5V10.9167H2.16667V14.25ZM6.375 5.50001H9.625L8 2.87501L6.375 5.50001Z" fill="#003663"/>
</svg>
