<svg width="44" height="44" viewBox="0 0 44 44" fill="none" xmlns="http://www.w3.org/2000/svg">
<rect width="44" height="44" rx="8" fill="#003663"/>
<path d="M16.6375 27.25H13C12.8011 27.25 12.6103 27.171 12.4697 27.0303C12.329 26.8897 12.25 26.6989 12.25 26.5C12.25 26.3011 12.329 26.1103 12.4697 25.9697C12.6103 25.829 12.8011 25.75 13 25.75H16.6375C16.8364 25.75 17.0272 25.829 17.1678 25.9697C17.3085 26.1103 17.3875 26.3011 17.3875 26.5C17.3875 26.6989 17.3085 26.8897 17.1678 27.0303C17.0272 27.171 16.8364 27.25 16.6375 27.25ZM19.6375 28.75H14.5C14.3011 28.75 14.1103 28.829 13.9697 28.9697C13.829 29.1103 13.75 29.3011 13.75 29.5C13.75 29.6989 13.829 29.8897 13.9697 30.0303C14.1103 30.171 14.3011 30.25 14.5 30.25H19.6375C19.8364 30.25 20.0272 30.171 20.1678 30.0303C20.3085 29.8897 20.3875 29.6989 20.3875 29.5C20.3875 29.3011 20.3085 29.1103 20.1678 28.9697C20.0272 28.829 19.8364 28.75 19.6375 28.75ZM31.6712 25.6216L28.9872 24.28C28.238 23.9085 27.6079 23.3345 27.1683 22.6232C26.7287 21.9118 26.4972 21.0915 26.5 20.2553V17.5C26.5 17.3022 26.4219 17.1124 26.2827 16.972C26.1434 16.8315 25.9543 16.7517 25.7566 16.75C24.5635 16.7505 23.4189 16.2777 22.574 15.4352C21.7292 14.5928 21.253 13.4497 21.25 12.2566C21.2511 12.1165 21.2129 11.9789 21.1399 11.8594C21.0668 11.7399 20.9617 11.6432 20.8365 11.5804C20.7113 11.5175 20.571 11.491 20.4315 11.5038C20.292 11.5166 20.1589 11.5682 20.0472 11.6528L14.2291 16.0637C14.1866 16.0961 14.1516 16.1372 14.1263 16.1842C14.101 16.2312 14.0861 16.283 14.0824 16.3363C14.0788 16.3895 14.0866 16.4429 14.1052 16.4929C14.1239 16.543 14.153 16.5884 14.1906 16.6262L19.0131 21.4487C19.1514 21.5833 19.234 21.7649 19.2444 21.9576C19.2548 22.1502 19.1923 22.3398 19.0694 22.4884C19.002 22.5665 18.9193 22.6298 18.8263 22.6744C18.7334 22.719 18.6323 22.744 18.5293 22.7477C18.4262 22.7515 18.3235 22.734 18.2276 22.6964C18.1316 22.6587 18.0445 22.6016 17.9716 22.5287L13.0028 17.56C12.9605 17.5175 12.9086 17.4858 12.8515 17.4675C12.7943 17.4492 12.7336 17.4448 12.6745 17.4548C12.6153 17.4649 12.5595 17.4889 12.5115 17.525C12.4636 17.5611 12.425 17.6081 12.3991 17.6622C12.2651 17.9422 12.2213 18.2568 12.2737 18.5628C12.3261 18.8687 12.4721 19.1508 12.6916 19.3703L23.35 30.0306C23.4197 30.1002 23.5024 30.1555 23.5935 30.1931C23.6845 30.2307 23.7821 30.2501 23.8806 30.25H31C31.3978 30.25 31.7794 30.092 32.0607 29.8107C32.342 29.5294 32.5 29.1478 32.5 28.75V26.9631C32.5009 26.6844 32.4237 26.4111 32.2773 26.174C32.1308 25.9369 31.9209 25.7455 31.6712 25.6216Z" fill="white"/>
</svg>
