<svg width="44" height="44" viewBox="0 0 44 44" fill="none" xmlns="http://www.w3.org/2000/svg">
<rect width="44" height="44" rx="8" fill="#003663"/>
<path d="M28.72 24.7599C29.07 23.9099 29.26 22.9999 29.26 21.9999C29.26 21.2799 29.15 20.5899 28.96 19.9499C28.31 20.0999 27.63 20.1799 26.92 20.1799C25.466 20.1815 24.0329 19.8335 22.7415 19.1652C21.4502 18.4969 20.3384 17.5279 19.5 16.3399C18.604 18.5107 16.9117 20.2566 14.77 21.2199C14.73 21.4699 14.73 21.7399 14.73 21.9999C14.73 22.9547 14.918 23.9 15.2834 24.7821C15.6487 25.6641 16.1843 26.4655 16.8593 27.1406C18.2227 28.504 20.0719 29.2699 22 29.2699C23.05 29.2699 24.06 29.0399 24.97 28.6299C25.54 29.7199 25.8 30.2599 25.78 30.2599C24.14 30.8099 22.87 31.0799 22 31.0799C19.58 31.0799 17.27 30.1299 15.57 28.4199C14.535 27.3899 13.7663 26.1234 13.33 24.7299H12V20.1799H13.09C13.4202 18.5725 14.1795 17.0844 15.2872 15.8735C16.3949 14.6627 17.8097 13.7744 19.3815 13.3027C20.9534 12.8311 22.6235 12.7937 24.2149 13.1947C25.8062 13.5956 27.2593 14.4198 28.42 15.5799C29.6798 16.8355 30.5393 18.4362 30.89 20.1799H32V24.7299H31.94L28.38 27.9999L23.08 27.3999V25.7299H27.91L28.72 24.7599ZM19.27 21.7699C19.57 21.7699 19.86 21.8899 20.07 22.1099C20.281 22.3227 20.3995 22.6103 20.3995 22.9099C20.3995 23.2096 20.281 23.4972 20.07 23.7099C19.86 23.9199 19.57 24.0399 19.27 24.0399C18.64 24.0399 18.13 23.5399 18.13 22.9099C18.13 22.2799 18.64 21.7699 19.27 21.7699ZM24.72 21.7699C25.35 21.7699 25.85 22.2799 25.85 22.9099C25.85 23.5399 25.35 24.0399 24.72 24.0399C24.09 24.0399 23.58 23.5399 23.58 22.9099C23.58 22.6076 23.7001 22.3176 23.9139 22.1038C24.1277 21.8901 24.4177 21.7699 24.72 21.7699Z" fill="white"/>
</svg>
