<svg width="44" height="44" viewBox="0 0 44 44" fill="none" xmlns="http://www.w3.org/2000/svg">
<rect width="44" height="44" rx="8" fill="#003663"/>
<g clip-path="url(#clip0_8148_1344)">
<path d="M19.0002 18.5H25.0002C25.2654 18.5 25.5197 18.3947 25.7073 18.2071C25.8948 18.0196 26.0002 17.7652 26.0002 17.5C26.0002 17.2348 25.8948 16.9805 25.7073 16.7929C25.5197 16.6054 25.2654 16.5 25.0002 16.5H19.0002C18.7349 16.5 18.4806 16.6054 18.293 16.7929C18.1055 16.9805 18.0002 17.2348 18.0002 17.5C18.0002 17.7652 18.1055 18.0196 18.293 18.2071C18.4806 18.3947 18.7349 18.5 19.0002 18.5ZM19.4702 15C19.4849 15.122 19.544 15.2342 19.6362 15.3154C19.7285 15.3965 19.8473 15.4409 19.9702 15.44H24.0002C24.1224 15.4388 24.2401 15.3937 24.3319 15.3129C24.4237 15.2322 24.4834 15.1211 24.5002 15C24.72 13.9371 25.1263 12.9214 25.7002 12C25.7531 11.9106 25.775 11.8062 25.7623 11.7031C25.7497 11.6 25.7032 11.5039 25.6302 11.43C25.5698 11.3506 25.4872 11.291 25.3927 11.2589C25.2983 11.2268 25.1964 11.2237 25.1002 11.25L23.2402 12.05C23.209 12.0651 23.1748 12.0729 23.1402 12.0729C23.1055 12.0729 23.0713 12.0651 23.0402 12.05C22.9781 12.0269 22.9278 11.9802 22.9002 11.92L22.4602 10.81C22.4217 10.7198 22.3576 10.6429 22.2759 10.5889C22.1941 10.5348 22.0982 10.506 22.0002 10.506C21.9021 10.506 21.8062 10.5348 21.7245 10.5889C21.6427 10.6429 21.5786 10.7198 21.5402 10.81L21.1002 11.92C21.0725 11.9802 21.0222 12.0269 20.9602 12.05C20.929 12.0651 20.8948 12.0729 20.8602 12.0729C20.8255 12.0729 20.7913 12.0651 20.7602 12.05L18.9002 11.25C18.8048 11.2114 18.6998 11.2032 18.5996 11.2265C18.4994 11.2498 18.4088 11.3034 18.3402 11.38C18.2671 11.4539 18.2206 11.55 18.208 11.6531C18.1953 11.7562 18.2172 11.8606 18.2702 11.95C18.8495 12.8867 19.2559 13.9197 19.4702 15ZM25.4402 19.62C25.337 19.5408 25.2102 19.4985 25.0802 19.5H18.9202C18.7901 19.4985 18.6633 19.5408 18.5602 19.62C16.0102 21.62 13.1602 25.02 13.1602 28.02C13.1602 32.25 15.5202 34.5 22.0002 34.5C28.4802 34.5 30.8402 32.25 30.8402 28.02C30.8402 25.02 28.0002 21.57 25.4402 19.62ZM23.0002 30.63C22.9419 30.6414 22.8892 30.6725 22.851 30.718C22.8128 30.7634 22.7913 30.8206 22.7902 30.88V31.25C22.7902 31.4489 22.7111 31.6397 22.5705 31.7804C22.4298 31.921 22.2391 32 22.0402 32C21.8412 32 21.6505 31.921 21.5098 31.7804C21.3692 31.6397 21.2902 31.4489 21.2902 31.25V30.93C21.2902 30.8637 21.2638 30.8001 21.2169 30.7532C21.17 30.7064 21.1065 30.68 21.0402 30.68H20.4502C20.2512 30.68 20.0605 30.601 19.9198 30.4604C19.7792 30.3197 19.7002 30.1289 19.7002 29.93C19.7002 29.7311 19.7792 29.5403 19.9198 29.3997C20.0605 29.259 20.2512 29.18 20.4502 29.18H22.6002C22.7598 29.1855 22.9161 29.1338 23.041 29.0343C23.1658 28.9347 23.251 28.7938 23.2812 28.6369C23.3113 28.4801 23.2845 28.3177 23.2054 28.1789C23.1264 28.0401 23.0004 27.9341 22.8502 27.88L20.6702 27.01C20.2308 26.8454 19.8569 26.5423 19.6052 26.1464C19.3534 25.7505 19.2374 25.2833 19.2746 24.8156C19.3119 24.3479 19.5005 23.9051 19.8118 23.5541C20.1231 23.203 20.5403 22.9629 21.0002 22.87C21.0585 22.8586 21.1111 22.8276 21.1493 22.7821C21.1875 22.7366 21.209 22.6794 21.2102 22.62V22.25C21.2102 22.0511 21.2892 21.8603 21.4298 21.7197C21.5705 21.579 21.7612 21.5 21.9602 21.5C22.1591 21.5 22.3498 21.579 22.4905 21.7197C22.6311 21.8603 22.7102 22.0511 22.7102 22.25V22.57C22.7102 22.6363 22.7365 22.6999 22.7834 22.7468C22.8303 22.7937 22.8939 22.82 22.9602 22.82H23.5502C23.7491 22.82 23.9398 22.899 24.0805 23.0397C24.2211 23.1803 24.3002 23.3711 24.3002 23.57C24.3002 23.7689 24.2211 23.9597 24.0805 24.1004C23.9398 24.241 23.7491 24.32 23.5502 24.32H21.4402C21.2805 24.3145 21.1242 24.3662 20.9994 24.4658C20.8745 24.5654 20.7893 24.7063 20.7591 24.8631C20.729 25.0199 20.7558 25.1824 20.8349 25.3212C20.9139 25.4599 21.0399 25.5659 21.1902 25.62L23.3702 26.49C23.8094 26.6579 24.1818 26.9646 24.4309 27.3634C24.68 27.7623 24.7922 28.2315 24.7503 28.6999C24.7084 29.1683 24.5149 29.6102 24.199 29.9585C23.8831 30.3069 23.4622 30.5427 23.0002 30.63Z" fill="white"/>
</g>
<defs>
<clipPath id="clip0_8148_1344">
<rect width="24" height="24" fill="white" transform="translate(10 10.5)"/>
</clipPath>
</defs>
</svg>
