<svg width="495" height="345" viewBox="0 0 495 345" fill="none" xmlns="http://www.w3.org/2000/svg">
<g clip-path="url(#clip0_8942_4287)">
<path d="M98.6255 345C153.095 345 197.251 341.64 197.251 337.496C197.251 333.352 153.095 329.993 98.6255 329.993C44.1561 329.993 0 333.352 0 337.496C0 341.64 44.1561 345 98.6255 345Z" fill="#E6E6E6"/>
<path d="M75.3877 76.5493C92.5515 69.2362 113.929 73.8697 134.807 77.0856C135.001 73.1912 137.356 68.4515 134.889 65.7345C131.892 62.4337 132.168 58.9654 133.972 55.4772C138.583 46.5572 131.976 37.0659 125.305 29.174C123.801 27.3992 121.901 26.0047 119.758 25.1038C117.616 24.2029 115.291 23.821 112.973 23.9891L100.616 24.8733C97.6085 25.0885 94.7387 26.2185 92.3902 28.1122C90.0416 30.0059 88.3265 32.5729 87.4741 35.4698C84.5233 39.49 82.944 43.4991 83.9384 47.4873C79.5185 50.513 78.776 54.1654 80.7621 58.2828C82.4462 60.8752 82.4283 63.3987 80.6854 65.8524C78.3966 68.9807 76.6436 72.4688 75.4982 76.1738L75.3877 76.5493Z" fill="#2F2E41"/>
<path d="M483.271 298.247H133.451C130.34 298.247 127.357 297.009 125.157 294.805C122.957 292.602 121.722 289.613 121.722 286.497C248.531 271.733 372.957 271.733 495 286.497C495 289.613 493.765 292.602 491.565 294.805C489.365 297.009 486.382 298.247 483.271 298.247Z" fill="#2F2E41"/>
<path d="M495 287.188L121.722 286.497L164.983 213.577L165.19 213.231V52.5233C165.19 50.5726 165.574 48.641 166.319 46.8389C167.064 45.0367 168.156 43.3991 169.533 42.0198C170.91 40.6405 172.544 39.5464 174.344 38.8C176.143 38.0536 178.071 37.6695 180.018 37.6697H434.634C436.581 37.6695 438.51 38.0536 440.309 38.8C442.108 39.5464 443.742 40.6405 445.119 42.0198C446.496 43.3991 447.588 45.0367 448.333 46.8389C449.078 48.641 449.462 50.5726 449.462 52.5233V214.337L495 287.188Z" fill="#3F3D56"/>
<path d="M179.679 48.0374C178.399 48.0388 177.171 48.549 176.266 49.4561C175.36 50.3631 174.851 51.5929 174.85 52.8757V199.407C174.851 200.69 175.36 201.92 176.266 202.827C177.171 203.734 178.399 204.244 179.679 204.245H437.042C438.322 204.244 439.55 203.734 440.455 202.827C441.361 201.92 441.87 200.69 441.872 199.407V52.8757C441.87 51.5929 441.361 50.3632 440.455 49.4561C439.55 48.5491 438.322 48.0388 437.042 48.0374H179.679Z" fill="white"/>
<path d="M180.758 223.599C180.362 223.6 179.975 223.714 179.642 223.927C179.308 224.141 179.043 224.446 178.877 224.806L165.547 253.836C165.402 254.152 165.338 254.499 165.362 254.846C165.386 255.193 165.497 255.528 165.684 255.821C165.872 256.114 166.129 256.355 166.434 256.521C166.739 256.688 167.08 256.776 167.427 256.776H447.756C448.109 256.776 448.456 256.685 448.764 256.513C449.072 256.341 449.331 256.093 449.517 255.792C449.702 255.492 449.808 255.148 449.823 254.795C449.839 254.442 449.765 254.091 449.607 253.775L435.117 224.745C434.946 224.4 434.682 224.11 434.355 223.907C434.028 223.705 433.651 223.598 433.266 223.599H180.758Z" fill="#2F2E41"/>
<path d="M307.326 45.6184C309.04 45.6184 310.431 44.2258 310.431 42.508C310.431 40.7902 309.04 39.3977 307.326 39.3977C305.611 39.3977 304.221 40.7902 304.221 42.508C304.221 44.2258 305.611 45.6184 307.326 45.6184Z" fill="white"/>
<path d="M279.772 262.305C279.317 262.306 278.875 262.456 278.514 262.734C278.152 263.011 277.892 263.399 277.773 263.839L274.43 276.281C274.347 276.588 274.336 276.91 274.398 277.223C274.459 277.535 274.592 277.829 274.785 278.081C274.978 278.334 275.227 278.539 275.512 278.68C275.797 278.82 276.11 278.894 276.428 278.894H340.019C340.349 278.894 340.674 278.815 340.968 278.663C341.261 278.512 341.514 278.292 341.705 278.023C341.897 277.753 342.021 277.442 342.068 277.115C342.115 276.788 342.083 276.454 341.975 276.142L337.676 263.7C337.535 263.293 337.271 262.94 336.92 262.69C336.57 262.44 336.15 262.305 335.72 262.305H279.772Z" fill="#2F2E41"/>
<path d="M449.462 210.812V213.576H164.983L165.197 213.231V210.812H449.462Z" fill="#2F2E41"/>
<path d="M441.527 96.7661C468.202 96.7661 489.826 75.1043 489.826 48.3831C489.826 21.6618 468.202 0 441.527 0C414.853 0 393.229 21.6618 393.229 48.3831C393.229 75.1043 414.853 96.7661 441.527 96.7661Z" fill="#003663"/>
<path d="M461.537 69.4642H421.518C420.786 69.4635 420.084 69.1719 419.567 68.6536C419.05 68.1353 418.759 67.4325 418.758 66.6994V42.5079C418.759 41.7749 419.05 41.0721 419.567 40.5538C420.084 40.0355 420.786 39.7439 421.518 39.7432H461.537C462.268 39.7439 462.97 40.0355 463.487 40.5538C464.005 41.0721 464.296 41.7749 464.296 42.5079V66.6994C464.296 67.4325 464.005 68.1353 463.487 68.6536C462.97 69.172 462.268 69.4635 461.537 69.4642ZM421.518 42.5079V66.6994H461.539L461.537 42.5079L421.518 42.5079Z" fill="white"/>
<path d="M453.947 42.508H429.107V31.449C429.107 23.4389 434.331 17.6252 441.527 17.6252C448.723 17.6252 453.947 23.4389 453.947 31.449L453.947 42.508ZM431.867 39.7432H451.187V31.449C451.187 24.9377 447.215 20.39 441.527 20.39C435.839 20.39 431.867 24.9377 431.867 31.449L431.867 39.7432Z" fill="white"/>
<path d="M441.527 56.6772C443.051 56.6772 444.286 55.4394 444.286 53.9125C444.286 52.3855 443.051 51.1477 441.527 51.1477C440.002 51.1477 438.767 52.3855 438.767 53.9125C438.767 55.4394 440.002 56.6772 441.527 56.6772Z" fill="white"/>
<path d="M407.81 154.544H208.911C207.934 154.543 206.998 154.153 206.308 153.462C205.617 152.77 205.229 151.832 205.228 150.854V101.429C205.229 100.451 205.617 99.5132 206.308 98.8215C206.998 98.1298 207.934 97.7407 208.911 97.7395H407.81C408.786 97.7407 409.722 98.1298 410.413 98.8215C411.103 99.5132 411.492 100.451 411.493 101.429V150.854C411.492 151.832 411.103 152.77 410.413 153.462C409.722 154.153 408.786 154.543 407.81 154.544ZM208.911 99.2154C208.325 99.2161 207.763 99.4495 207.349 99.8646C206.935 100.28 206.701 100.842 206.701 101.429V150.854C206.701 151.441 206.935 152.004 207.349 152.419C207.763 152.834 208.325 153.067 208.911 153.068H407.81C408.396 153.067 408.957 152.834 409.372 152.419C409.786 152.004 410.019 151.441 410.02 150.854V101.429C410.019 100.842 409.786 100.28 409.372 99.8645C408.957 99.4495 408.396 99.216 407.81 99.2154L208.911 99.2154Z" fill="#E6E6E6"/>
<path d="M239.816 139.275C248.103 139.275 254.82 132.546 254.82 124.245C254.82 115.944 248.103 109.215 239.816 109.215C231.53 109.215 224.812 115.944 224.812 124.245C224.812 132.546 231.53 139.275 239.816 139.275Z" fill="#E6E6E6"/>
<path d="M274.467 114.225C274.139 114.225 273.813 114.289 273.509 114.415C273.205 114.54 272.929 114.725 272.697 114.957C272.464 115.19 272.28 115.466 272.154 115.771C272.028 116.075 271.963 116.401 271.963 116.73C271.963 117.059 272.028 117.385 272.154 117.69C272.28 117.994 272.464 118.27 272.697 118.503C272.929 118.735 273.205 118.92 273.509 119.046C273.813 119.171 274.139 119.236 274.467 119.235H392.355C393.018 119.235 393.654 118.971 394.123 118.501C394.592 118.032 394.855 117.394 394.855 116.73C394.855 116.066 394.592 115.429 394.123 114.959C393.654 114.489 393.018 114.225 392.355 114.225H274.467Z" fill="#E6E6E6"/>
<path d="M274.467 129.255C273.804 129.255 273.168 129.519 272.699 129.989C272.23 130.459 271.967 131.096 271.967 131.76C271.967 132.425 272.23 133.062 272.699 133.531C273.168 134.001 273.804 134.265 274.467 134.265H325.195C325.858 134.265 326.494 134.001 326.963 133.531C327.432 133.062 327.695 132.425 327.695 131.76C327.695 131.096 327.432 130.459 326.963 129.989C326.494 129.519 325.858 129.255 325.195 129.255H274.467Z" fill="#E6E6E6"/>
<path d="M164.493 130.269L127.725 149.85L127.26 133.532C139.261 131.525 150.678 128.031 161.235 122.343L165.081 112.825C165.5 111.788 166.181 110.878 167.057 110.185C167.933 109.491 168.974 109.037 170.078 108.868C171.182 108.699 172.311 108.821 173.354 109.221C174.397 109.621 175.318 110.286 176.027 111.151C177.064 112.416 177.583 114.028 177.477 115.662C177.372 117.295 176.651 118.828 175.46 119.948L164.493 130.269Z" fill="#FFB8B8"/>
<path d="M74.6548 243.326C74.3866 242.341 74.3297 241.31 74.4877 240.301C74.6458 239.291 75.0153 238.327 75.572 237.472L83.6489 225.054C85.5592 222.117 88.4905 219.996 91.8741 219.102C95.2576 218.208 98.8521 218.604 101.96 220.215C98.5656 226.003 99.0388 231.081 103.132 235.493C96.7776 238.601 90.9043 242.612 85.6944 247.402C84.7433 248.052 83.651 248.464 82.5086 248.605C81.3661 248.746 80.2065 248.612 79.1265 248.213C78.0464 247.814 77.0771 247.163 76.2993 246.313C75.5214 245.463 74.9576 244.439 74.6548 243.326Z" fill="#2F2E41"/>
<path d="M166.168 227.091C164.946 229.131 163.221 230.823 161.158 232.003C159.095 233.184 156.764 233.813 154.389 233.831L100.731 234.238L98.4043 220.717L122.141 213.724L102.128 198.338L124.002 172.696L163.733 209.791C166.055 211.959 167.564 214.86 168.007 218.009C168.451 221.158 167.801 224.364 166.168 227.091Z" fill="#2F2E41"/>
<path d="M92.354 319.559H79.7878C68.5051 242.085 57.0204 164.394 90.9578 135.397L130.984 141.924L125.864 175.959L103.524 201.602L92.354 319.559Z" fill="#2F2E41"/>
<path d="M103.4 337.109C102.416 337.378 101.387 337.435 100.379 337.276C99.372 337.118 98.4095 336.748 97.5552 336.19L83.9108 334.353C80.9789 332.44 78.861 329.503 77.9682 326.114C77.0753 322.725 77.4711 319.124 79.0788 316.01C84.857 319.41 89.9258 318.936 94.3305 314.835C97.4428 321.13 102.571 320.746 107.468 326.05C108.116 327.002 108.528 328.097 108.669 329.241C108.81 330.386 108.676 331.547 108.278 332.629C107.88 333.711 107.229 334.682 106.381 335.461C105.532 336.241 104.51 336.805 103.4 337.109Z" fill="#2F2E41"/>
<path d="M122.141 83.6454L98.8701 78.0506C102.735 70.1255 103.053 61.3073 101.197 51.9416L117.021 51.4753C117.517 63.1219 119.017 74.0027 122.141 83.6454Z" fill="#FFB8B8"/>
<path d="M128.536 155.962C111.596 167.526 99.6266 156.358 90.4924 139.127C91.7617 128.583 89.7066 115.965 85.9003 102.255C84.2075 96.2078 84.8395 89.7446 87.6715 84.1414C90.5034 78.5382 95.3295 74.2022 101.197 71.9895L121.21 80.3817C138.203 94.2574 141.548 109.288 135.173 125.14L128.536 155.962Z" fill="#003663"/>
<path d="M79.7876 95.301L61.1709 105.092L94.2155 124.674L98.8135 136.035C99.1204 136.793 99.2699 137.606 99.2529 138.425C99.2359 139.243 99.0527 140.049 98.7146 140.793C98.3765 141.538 97.8905 142.206 97.2862 142.757C96.6819 143.308 95.972 143.729 95.1998 143.996C94.322 144.299 93.386 144.395 92.4652 144.275C91.5444 144.155 90.6637 143.824 89.8922 143.306C89.1206 142.789 88.4791 142.099 88.0179 141.292C87.5567 140.485 87.2884 139.581 87.2339 138.653L86.7689 130.735L44.7695 116.851C43.3545 116.383 42.0642 115.599 40.9965 114.557C39.9288 113.516 39.1116 112.245 38.6069 110.841C37.8712 108.793 37.8337 106.559 38.5004 104.489C39.1671 102.418 40.5003 100.627 42.2914 99.3959L76.0643 76.1855L79.7876 95.301Z" fill="#FFB8B8"/>
<path d="M98.404 97.166C90.6397 93.7574 83.5794 97.4602 74.6677 100.43L73.2715 75.7193C82.1204 70.9947 90.5572 69.7209 98.404 73.3882L98.404 97.166Z" fill="#003663"/>
<path d="M107.693 63.7151C115.898 63.7151 122.55 57.0515 122.55 48.8316C122.55 40.6116 115.898 33.948 107.693 33.948C99.4869 33.948 92.835 40.6116 92.835 48.8316C92.835 57.0515 99.4869 63.7151 107.693 63.7151Z" fill="#FFB8B8"/>
<path d="M125.467 46.9537C110.757 48.397 99.5476 45.987 92.3838 39.1249V33.5986H124.219L125.467 46.9537Z" fill="#2F2E41"/>
</g>
<defs>
<clipPath id="clip0_8942_4287">
<rect width="495" height="345" fill="white"/>
</clipPath>
</defs>
</svg>
